<?xml version="1.0" encoding="UTF-8" standalone="no"?>
<!-- 2020-02-13 20:03:13 Generated by QCAD 3.23.0 SVG Exporter -->

<svg
   xmlns:dc="http://purl.org/dc/elements/1.1/"
   xmlns:cc="http://creativecommons.org/ns#"
   xmlns:rdf="http://www.w3.org/1999/02/22-rdf-syntax-ns#"
   xmlns:svg="http://www.w3.org/2000/svg"
   xmlns="http://www.w3.org/2000/svg"
   xmlns:sodipodi="http://sodipodi.sourceforge.net/DTD/sodipodi-0.dtd"
   xmlns:inkscape="http://www.inkscape.org/namespaces/inkscape"
   width="110mm"
   height="70mm"
   viewBox="60 -130 110 70"
   version="1.1"
   style="stroke-linecap:round;stroke-linejoin:round;fill:none"
   id="svg72"
   sodipodi:docname="BoardMount.svg"
   inkscape:version="0.92.3 (2405546, 2018-03-11)">
  <metadata
     id="metadata78">
    <rdf:RDF>
      <cc:Work
         rdf:about="">
        <dc:format>image/svg+xml</dc:format>
        <dc:type
           rdf:resource="http://purl.org/dc/dcmitype/StillImage" />
      </cc:Work>
    </rdf:RDF>
  </metadata>
  <defs
     id="defs76" />
  <sodipodi:namedview
     pagecolor="#ffffff"
     bordercolor="#666666"
     borderopacity="1"
     objecttolerance="10"
     gridtolerance="10"
     guidetolerance="10"
     inkscape:pageopacity="0"
     inkscape:pageshadow="2"
     inkscape:window-width="2615"
     inkscape:window-height="1638"
     id="namedview74"
     showgrid="false"
     inkscape:zoom="4.6534054"
     inkscape:cx="162.66815"
     inkscape:cy="232.3535"
     inkscape:window-x="866"
     inkscape:window-y="305"
     inkscape:window-maximized="0"
     inkscape:current-layer="g70" />
  <g
     transform="scale(1,-1)"
     id="g70">
    <!-- Line -->
    <path
       d="M70,70 L84,70 "
       style="stroke:#000000;stroke-width:0.25;"
       id="path2" />
    <!-- Line -->
    <path
       d="M84,70 L84,80 "
       style="stroke:#000000;stroke-width:0.25;"
       id="path4" />
    <!-- Line -->
    <path
       d="M84,80 L70,80 "
       style="stroke:#000000;stroke-width:0.25;"
       id="path6" />
    <!-- Line -->
    <path
       d="M70,80 L70,70 "
       style="stroke:#000000;stroke-width:0.25;"
       id="path8" />
    <!-- Line -->
    <path
       d="M60,60 L110,60 "
       style="stroke:#000000;stroke-width:0.25;"
       id="path10" />
    <!-- Line -->
    <path
       d="M120,60 L170,60 "
       style="stroke:#000000;stroke-width:0.25;"
       id="path12" />
    <!-- Line -->
    <path
       d="M110,60 L110,130 "
       style="stroke:#000000;stroke-width:0.25;"
       id="path14" />
    <!-- Line -->
    <path
       d="M170,60 L170,130 "
       style="stroke:#000000;stroke-width:0.25;"
       id="path16" />
    <!-- Line -->
    <path
       d="M110,130 L60,130 "
       style="stroke:#000000;stroke-width:0.25;"
       id="path18" />
    <!-- Line -->
    <path
       d="M170,130 L120,130 "
       style="stroke:#000000;stroke-width:0.25;"
       id="path20" />
    <!-- Line -->
    <path
       d="M60,130 L60,60 "
       style="stroke:#000000;stroke-width:0.25;"
       id="path22" />
    <!-- Line -->
    <path
       d="M120,130 L120,120 "
       style="stroke:#000000;stroke-width:0.25;"
       id="path24" />
    <!-- Line -->
    <path
       d="M120,90 L120,60 "
       style="stroke:#000000;stroke-width:0.25;"
       id="path26" />
    <!-- Line -->
    <path
       d="M127,62.5 L163,62.5 "
       style="stroke:#000000;stroke-width:0.25;"
       id="path28" />
    <!-- Line -->
    <path
       d="M163,87.5 L127,87.5 "
       style="stroke:#000000;stroke-width:0.25;"
       id="path30" />
    <!-- Line -->
    <path
       d="M127,87.5 L127,62.5 "
       style="stroke:#000000;stroke-width:0.25;"
       id="path32" />
    <!-- Line -->
    <path
       d="M163,62.5 L163,87.5 "
       style="stroke:#000000;stroke-width:0.25;"
       id="path34" />
    <!-- Line -->
    <path
       d="M120,120 L150,120 "
       style="stroke:#000000;stroke-width:0.25;"
       id="path36" />
    <!-- Line -->
    <path
       d="M150,120 L150,90 "
       style="stroke:#000000;stroke-width:0.25;"
       id="path38" />
    <!-- Line -->
    <path
       d="M150,90 L120,90 "
       style="stroke:#000000;stroke-width:0.25;"
       id="path40" />
    <!-- Text: QCAD.org
Trial Version
Random lines added -->
    <!-- Line -->
    <!-- Line -->
    <!-- Line -->
    <!-- Text: QCAD.org
Trial Version
Random lines added -->
    <!-- Line -->
    <!-- Line -->
    <!-- Line -->
    <g
       aria-label="Manual"
       transform="scale(1,-1)"
       style="font-style:normal;font-weight:normal;font-size:10.58333397px;line-height:1.25;font-family:sans-serif;letter-spacing:0px;word-spacing:0px;fill:#000000;fill-opacity:1;stroke:none;stroke-width:0.26458335"
       id="text887">
      <path
         d="m 84.871089,-78.975267 h 0.518487 l 0.65629,1.750108 0.659736,-1.750108 h 0.518487 v 2.571764 h -0.339342 v -2.258261 l -0.663181,1.763889 h -0.349677 l -0.663181,-1.763889 v 2.258261 h -0.337619 z"
         style="font-size:3.52777791px;line-height:0;stroke-width:0.26458335"
         id="path949" />
      <path
         d="m 88.77955,-77.373298 q -0.384129,0 -0.532268,0.08785 -0.148139,0.08785 -0.148139,0.299723 0,0.16881 0.110243,0.268718 0.111966,0.09819 0.303169,0.09819 0.26355,0 0.422024,-0.186035 0.160197,-0.187758 0.160197,-0.497816 v -0.07063 z m 0.632175,-0.130913 v 1.100708 h -0.316949 v -0.292834 q -0.108521,0.1757 -0.27044,0.260105 -0.16192,0.08268 -0.396186,0.08268 -0.296278,0 -0.471978,-0.165364 -0.173978,-0.167087 -0.173978,-0.44614 0,-0.325562 0.217041,-0.490926 0.218764,-0.165365 0.651124,-0.165365 h 0.444417 v -0.03101 q 0,-0.218763 -0.144694,-0.337619 -0.142972,-0.120578 -0.403076,-0.120578 -0.165365,0 -0.322117,0.03962 -0.156752,0.03962 -0.301446,0.118856 v -0.292833 q 0.173978,-0.06718 0.33762,-0.09991 0.163642,-0.03445 0.318671,-0.03445 0.418579,0 0.625285,0.217041 0.206706,0.217041 0.206706,0.658014 z"
         style="font-size:3.52777791px;line-height:0;stroke-width:0.26458335"
         id="path951" />
      <path
         d="m 91.669985,-77.567946 v 1.164443 h -0.316949 v -1.154107 q 0,-0.273886 -0.106798,-0.409967 -0.106798,-0.136081 -0.320394,-0.136081 -0.25666,0 -0.404799,0.163642 -0.148139,0.163642 -0.148139,0.44614 v 1.090373 h -0.318671 v -1.929254 h 0.318671 v 0.299723 q 0.113688,-0.173977 0.266995,-0.260104 0.155029,-0.08613 0.356567,-0.08613 0.332452,0 0.502984,0.206706 0.170533,0.204983 0.170533,0.604614 z"
         style="font-size:3.52777791px;line-height:0;stroke-width:0.26458335"
         id="path953" />
      <path
         d="m 92.272876,-77.16487 v -1.167887 h 0.316949 v 1.15583 q 0,0.273885 0.106798,0.411689 0.106798,0.136081 0.320394,0.136081 0.25666,0 0.404799,-0.163642 0.149861,-0.163642 0.149861,-0.44614 v -1.093818 h 0.316949 v 1.929254 h -0.316949 v -0.296279 q -0.11541,0.1757 -0.268717,0.261828 -0.151584,0.0844 -0.353122,0.0844 -0.332452,0 -0.504707,-0.206705 -0.172255,-0.206706 -0.172255,-0.604615 z m 0.79754,-1.214396 z"
         style="font-size:3.52777791px;line-height:0;stroke-width:0.26458335"
         id="path955" />
      <path
         d="m 95.421694,-77.373298 q -0.384128,0 -0.532267,0.08785 -0.14814,0.08785 -0.14814,0.299723 0,0.16881 0.110244,0.268718 0.111965,0.09819 0.303168,0.09819 0.26355,0 0.422024,-0.186035 0.160197,-0.187758 0.160197,-0.497816 v -0.07063 z m 0.632175,-0.130913 v 1.100708 H 95.73692 v -0.292834 q -0.10852,0.1757 -0.27044,0.260105 -0.161919,0.08268 -0.396186,0.08268 -0.296278,0 -0.471978,-0.165364 -0.173977,-0.167087 -0.173977,-0.44614 0,-0.325562 0.217041,-0.490926 0.218763,-0.165365 0.651123,-0.165365 h 0.444417 v -0.03101 q 0,-0.218763 -0.144694,-0.337619 -0.142971,-0.120578 -0.403076,-0.120578 -0.165365,0 -0.322117,0.03962 -0.156751,0.03962 -0.301445,0.118856 v -0.292833 q 0.173977,-0.06718 0.337619,-0.09991 0.163642,-0.03445 0.318671,-0.03445 0.418579,0 0.625285,0.217041 0.206706,0.217041 0.206706,0.658014 z"
         style="font-size:3.52777791px;line-height:0;stroke-width:0.26458335"
         id="path957" />
      <path
         d="m 96.708438,-79.083788 h 0.316949 v 2.680285 h -0.316949 z"
         style="font-size:3.52777791px;line-height:0;stroke-width:0.26458335"
         id="path959" />
    </g>
    <flowRoot
       xml:space="preserve"
       id="flowRoot891"
       style="fill:black;fill-opacity:1;stroke:none;font-family:sans-serif;font-style:normal;font-weight:normal;font-size:40px;line-height:1.25;letter-spacing:0px;word-spacing:0px"><flowRegion
         id="flowRegion893"><rect
           id="rect895"
           width="71.114792"
           height="44.37077"
           x="131.59276"
           y="184.63876" /></flowRegion><flowPara
         id="flowPara897" /></flowRoot>    <g
       aria-label="Auto"
       transform="scale(1,-1)"
       style="font-style:normal;font-weight:normal;font-size:10.58333397px;line-height:1.25;font-family:sans-serif;letter-spacing:0px;word-spacing:0px;fill:#000000;fill-opacity:1;stroke:none;stroke-width:0.26458335;stroke-linecap:round;stroke-linejoin:round"
       id="text887-3">
      <path
         d="m 85.900829,-73.698894 -0.471978,1.279853 h 0.945679 z m -0.19637,-0.342787 h 0.394463 l 0.98013,2.571764 h -0.361735 l -0.234267,-0.659736 h -1.159275 l -0.234266,0.659736 h -0.366903 z"
         style="font-size:3.52777815px;line-height:0;stroke-width:0.26458335"
         id="path962" />
      <path
         d="m 87.406336,-72.231283 v -1.167888 h 0.316949 v 1.15583 q 0,0.273885 0.106798,0.411689 0.106798,0.136081 0.320394,0.136081 0.256659,0 0.404798,-0.163642 0.149862,-0.163642 0.149862,-0.44614 v -1.093818 h 0.316949 v 1.929254 h -0.316949 v -0.296279 q -0.115411,0.1757 -0.268717,0.261828 -0.151585,0.08441 -0.353123,0.08441 -0.332451,0 -0.504706,-0.206706 -0.172255,-0.206706 -0.172255,-0.604614 z m 0.79754,-1.214397 z"
         style="font-size:3.52777815px;line-height:0;stroke-width:0.26458335"
         id="path964" />
      <path
         d="m 89.991881,-73.946941 v 0.54777 h 0.652845 v 0.246324 h -0.652845 v 1.04731 q 0,0.235989 0.06373,0.303168 0.06546,0.06718 0.26355,0.06718 h 0.325561 v 0.265273 h -0.325561 q -0.366903,0 -0.506429,-0.136082 -0.139527,-0.137803 -0.139527,-0.499538 v -1.04731 h -0.232544 v -0.246324 h 0.232544 v -0.54777 z"
         style="font-size:3.52777815px;line-height:0;stroke-width:0.26458335"
         id="path966" />
      <path
         d="m 91.810891,-73.176962 q -0.254937,0 -0.403076,0.199815 -0.148139,0.198093 -0.148139,0.544325 0,0.346233 0.146416,0.546048 0.148139,0.198093 0.404799,0.198093 0.253215,0 0.401354,-0.199815 0.148139,-0.199816 0.148139,-0.544326 0,-0.342787 -0.148139,-0.542602 -0.148139,-0.201538 -0.401354,-0.201538 z m 0,-0.268718 q 0.413412,0 0.649401,0.268718 0.235989,0.268717 0.235989,0.74414 0,0.473701 -0.235989,0.744141 -0.235989,0.268718 -0.649401,0.268718 -0.415134,0 -0.651123,-0.268718 -0.234267,-0.27044 -0.234267,-0.744141 0,-0.475423 0.234267,-0.74414 0.235989,-0.268718 0.651123,-0.268718 z"
         style="font-size:3.52777815px;line-height:0;stroke-width:0.26458335"
         id="path968" />
    </g>
    <g
       aria-label="↓"
       transform="scale(1,-1)"
       style="font-style:normal;font-weight:normal;font-size:15.19432831px;line-height:1.25;font-family:sans-serif;letter-spacing:0px;word-spacing:0px;fill:#000000;fill-opacity:1;stroke:none;stroke-width:0.26458335;stroke-linecap:round;stroke-linejoin:round"
       id="text887-8">
      <path
         d="m 67.864209,-70.65377 h -0.222574 l -0.974375,-0.974376 0.296764,-0.296764 0.57869,0.57869 v -3.017103 h 0.420416 v 3.017103 l 0.573744,-0.57869 0.296765,0.296764 z"
         style="font-size:5.06477642px;line-height:0;stroke-width:0.26458335"
         id="path971" />
    </g>
    <g
       aria-label="↑"
       transform="scale(1,-1)"
       style="font-style:normal;font-weight:normal;font-size:15.19432926px;line-height:1.25;font-family:sans-serif;letter-spacing:0px;word-spacing:0px;fill:#000000;fill-opacity:1;stroke:none;stroke-width:0.26458335;stroke-linecap:round;stroke-linejoin:round"
       id="text887-8-9">
      <path
         d="m 67.650692,-79.099789 h 0.222573 l 0.96943,0.974376 -0.296765,0.296764 -0.573744,-0.57869 v 3.017103 H 67.55177 v -3.017103 l -0.57869,0.57869 -0.296764,-0.296764 z"
         style="font-size:5.06477642px;line-height:0;stroke-width:0.26458335"
         id="path974" />
    </g>
    <g
       aria-label="Manual"
       transform="matrix(1,0,0,-1,2.3879355,67.874526)"
       style="font-style:normal;font-weight:normal;font-size:10.58333397px;line-height:1.25;font-family:sans-serif;letter-spacing:0px;word-spacing:0px;fill:#000000;fill-opacity:1;stroke:none;stroke-width:0.26458335;stroke-linecap:round;stroke-linejoin:round"
       id="text887-2">
      <path
         inkscape:connector-curvature="0"
         d="m 84.871089,-78.975267 h 0.518487 l 0.65629,1.750108 0.659736,-1.750108 h 0.518487 v 2.571764 h -0.339342 v -2.258261 l -0.663181,1.763889 h -0.349677 l -0.663181,-1.763889 v 2.258261 h -0.337619 z"
         style="font-size:3.52777791px;line-height:0;stroke-width:0.26458335"
         id="path949-1" />
      <path
         inkscape:connector-curvature="0"
         d="m 88.77955,-77.373298 q -0.384129,0 -0.532268,0.08785 -0.148139,0.08785 -0.148139,0.299723 0,0.16881 0.110243,0.268718 0.111966,0.09819 0.303169,0.09819 0.26355,0 0.422024,-0.186035 0.160197,-0.187758 0.160197,-0.497816 v -0.07063 z m 0.632175,-0.130913 v 1.100708 h -0.316949 v -0.292834 q -0.108521,0.1757 -0.27044,0.260105 -0.16192,0.08268 -0.396186,0.08268 -0.296278,0 -0.471978,-0.165364 -0.173978,-0.167087 -0.173978,-0.44614 0,-0.325562 0.217041,-0.490926 0.218764,-0.165365 0.651124,-0.165365 h 0.444417 v -0.03101 q 0,-0.218763 -0.144694,-0.337619 -0.142972,-0.120578 -0.403076,-0.120578 -0.165365,0 -0.322117,0.03962 -0.156752,0.03962 -0.301446,0.118856 v -0.292833 q 0.173978,-0.06718 0.33762,-0.09991 0.163642,-0.03445 0.318671,-0.03445 0.418579,0 0.625285,0.217041 0.206706,0.217041 0.206706,0.658014 z"
         style="font-size:3.52777791px;line-height:0;stroke-width:0.26458335"
         id="path951-7" />
      <path
         inkscape:connector-curvature="0"
         d="m 91.669985,-77.567946 v 1.164443 h -0.316949 v -1.154107 q 0,-0.273886 -0.106798,-0.409967 -0.106798,-0.136081 -0.320394,-0.136081 -0.25666,0 -0.404799,0.163642 -0.148139,0.163642 -0.148139,0.44614 v 1.090373 h -0.318671 v -1.929254 h 0.318671 v 0.299723 q 0.113688,-0.173977 0.266995,-0.260104 0.155029,-0.08613 0.356567,-0.08613 0.332452,0 0.502984,0.206706 0.170533,0.204983 0.170533,0.604614 z"
         style="font-size:3.52777791px;line-height:0;stroke-width:0.26458335"
         id="path953-8" />
      <path
         inkscape:connector-curvature="0"
         d="m 92.272876,-77.16487 v -1.167887 h 0.316949 v 1.15583 q 0,0.273885 0.106798,0.411689 0.106798,0.136081 0.320394,0.136081 0.25666,0 0.404799,-0.163642 0.149861,-0.163642 0.149861,-0.44614 v -1.093818 h 0.316949 v 1.929254 h -0.316949 v -0.296279 q -0.11541,0.1757 -0.268717,0.261828 -0.151584,0.0844 -0.353122,0.0844 -0.332452,0 -0.504707,-0.206705 -0.172255,-0.206706 -0.172255,-0.604615 z m 0.79754,-1.214396 z"
         style="font-size:3.52777791px;line-height:0;stroke-width:0.26458335"
         id="path955-5" />
      <path
         inkscape:connector-curvature="0"
         d="m 95.421694,-77.373298 q -0.384128,0 -0.532267,0.08785 -0.14814,0.08785 -0.14814,0.299723 0,0.16881 0.110244,0.268718 0.111965,0.09819 0.303168,0.09819 0.26355,0 0.422024,-0.186035 0.160197,-0.187758 0.160197,-0.497816 v -0.07063 z m 0.632175,-0.130913 v 1.100708 H 95.73692 v -0.292834 q -0.10852,0.1757 -0.27044,0.260105 -0.161919,0.08268 -0.396186,0.08268 -0.296278,0 -0.471978,-0.165364 -0.173977,-0.167087 -0.173977,-0.44614 0,-0.325562 0.217041,-0.490926 0.218763,-0.165365 0.651123,-0.165365 h 0.444417 v -0.03101 q 0,-0.218763 -0.144694,-0.337619 -0.142971,-0.120578 -0.403076,-0.120578 -0.165365,0 -0.322117,0.03962 -0.156751,0.03962 -0.301445,0.118856 v -0.292833 q 0.173977,-0.06718 0.337619,-0.09991 0.163642,-0.03445 0.318671,-0.03445 0.418579,0 0.625285,0.217041 0.206706,0.217041 0.206706,0.658014 z"
         style="font-size:3.52777791px;line-height:0;stroke-width:0.26458335"
         id="path957-7" />
      <path
         inkscape:connector-curvature="0"
         d="m 96.708438,-79.083788 h 0.316949 v 2.680285 h -0.316949 z"
         style="font-size:3.52777791px;line-height:0;stroke-width:0.26458335"
         id="path959-4" />
    </g>
    <g
       aria-label="Auto"
       transform="matrix(1,0,0,-1,2.3879355,67.874526)"
       style="font-style:normal;font-weight:normal;font-size:10.58333397px;line-height:1.25;font-family:sans-serif;letter-spacing:0px;word-spacing:0px;fill:#000000;fill-opacity:1;stroke:none;stroke-width:0.26458335;stroke-linecap:round;stroke-linejoin:round"
       id="text887-3-1">
      <path
         inkscape:connector-curvature="0"
         d="m 85.900829,-73.698894 -0.471978,1.279853 h 0.945679 z m -0.19637,-0.342787 h 0.394463 l 0.98013,2.571764 h -0.361735 l -0.234267,-0.659736 h -1.159275 l -0.234266,0.659736 h -0.366903 z"
         style="font-size:3.52777815px;line-height:0;stroke-width:0.26458335"
         id="path962-8" />
      <path
         inkscape:connector-curvature="0"
         d="m 87.406336,-72.231283 v -1.167888 h 0.316949 v 1.15583 q 0,0.273885 0.106798,0.411689 0.106798,0.136081 0.320394,0.136081 0.256659,0 0.404798,-0.163642 0.149862,-0.163642 0.149862,-0.44614 v -1.093818 h 0.316949 v 1.929254 h -0.316949 v -0.296279 q -0.115411,0.1757 -0.268717,0.261828 -0.151585,0.08441 -0.353123,0.08441 -0.332451,0 -0.504706,-0.206706 -0.172255,-0.206706 -0.172255,-0.604614 z m 0.79754,-1.214397 z"
         style="font-size:3.52777815px;line-height:0;stroke-width:0.26458335"
         id="path964-5" />
      <path
         inkscape:connector-curvature="0"
         d="m 89.991881,-73.946941 v 0.54777 h 0.652845 v 0.246324 h -0.652845 v 1.04731 q 0,0.235989 0.06373,0.303168 0.06546,0.06718 0.26355,0.06718 h 0.325561 v 0.265273 h -0.325561 q -0.366903,0 -0.506429,-0.136082 -0.139527,-0.137803 -0.139527,-0.499538 v -1.04731 h -0.232544 v -0.246324 h 0.232544 v -0.54777 z"
         style="font-size:3.52777815px;line-height:0;stroke-width:0.26458335"
         id="path966-9" />
      <path
         inkscape:connector-curvature="0"
         d="m 91.810891,-73.176962 q -0.254937,0 -0.403076,0.199815 -0.148139,0.198093 -0.148139,0.544325 0,0.346233 0.146416,0.546048 0.148139,0.198093 0.404799,0.198093 0.253215,0 0.401354,-0.199815 0.148139,-0.199816 0.148139,-0.544326 0,-0.342787 -0.148139,-0.542602 -0.148139,-0.201538 -0.401354,-0.201538 z m 0,-0.268718 q 0.413412,0 0.649401,0.268718 0.235989,0.268717 0.235989,0.74414 0,0.473701 -0.235989,0.744141 -0.235989,0.268718 -0.649401,0.268718 -0.415134,0 -0.651123,-0.268718 -0.234267,-0.27044 -0.234267,-0.744141 0,-0.475423 0.234267,-0.74414 0.235989,-0.268718 0.651123,-0.268718 z"
         style="font-size:3.52777815px;line-height:0;stroke-width:0.26458335"
         id="path968-7" />
    </g>
  </g>
</svg>
