<?xml version="1.0" encoding="UTF-8" standalone="no"?>
<!-- 2020-02-15 11:31:22 Generated by QCAD 3.23.0 SVG Exporter -->

<svg
   xmlns:dc="http://purl.org/dc/elements/1.1/"
   xmlns:cc="http://creativecommons.org/ns#"
   xmlns:rdf="http://www.w3.org/1999/02/22-rdf-syntax-ns#"
   xmlns:svg="http://www.w3.org/2000/svg"
   xmlns="http://www.w3.org/2000/svg"
   xmlns:sodipodi="http://sodipodi.sourceforge.net/DTD/sodipodi-0.dtd"
   xmlns:inkscape="http://www.inkscape.org/namespaces/inkscape"
   width="260mm"
   height="120mm"
   viewBox="25 -120 260 120"
   version="1.1"
   style="stroke-linecap:round;stroke-linejoin:round;fill:none"
   id="svg272"
   sodipodi:docname="NewBoardMount.svg"
   inkscape:version="0.92.3 (2405546, 2018-03-11)">
  <metadata
     id="metadata278">
    <rdf:RDF>
      <cc:Work
         rdf:about="">
        <dc:format>image/svg+xml</dc:format>
        <dc:type
           rdf:resource="http://purl.org/dc/dcmitype/StillImage" />
      </cc:Work>
    </rdf:RDF>
  </metadata>
  <defs
     id="defs276" />
  <sodipodi:namedview
     pagecolor="#ffffff"
     bordercolor="#666666"
     borderopacity="1"
     objecttolerance="10"
     gridtolerance="10"
     guidetolerance="10"
     inkscape:pageopacity="0"
     inkscape:pageshadow="2"
     inkscape:window-width="2619"
     inkscape:window-height="1694"
     id="namedview274"
     showgrid="false"
     inkscape:zoom="1.9687485"
     inkscape:cx="496.21137"
     inkscape:cy="295.82476"
     inkscape:window-x="0"
     inkscape:window-y="27"
     inkscape:window-maximized="0"
     inkscape:current-layer="g80" />
  <g
     transform="scale(1,-1)"
     id="g270">
    <!-- Line -->
    <path
       d="M25,0 L175,0 "
       style="stroke:#000000;stroke-width:0.25;"
       id="path2" />
    <!-- Line -->
    <path
       d="M175,0 L175,120 "
       style="stroke:#000000;stroke-width:0.25;"
       id="path4" />
    <!-- Line -->
    <path
       d="M175,120 L25,120 "
       style="stroke:#000000;stroke-width:0.25;"
       id="path6" />
    <!-- Line -->
    <path
       d="M25,120 L25,0 "
       style="stroke:#000000;stroke-width:0.25;"
       id="path8" />
    <!-- Line -->
    <path
       d="M115,57.5 L160,57.5 "
       style="stroke:#000000;stroke-width:0.25;"
       id="path10" />
    <!-- Line -->
    <path
       d="M160,57.5 L160,102.5 "
       style="stroke:#000000;stroke-width:0.25;"
       id="path12" />
    <!-- Line -->
    <path
       d="M160,102.5 L115,102.5 "
       style="stroke:#000000;stroke-width:0.25;"
       id="path14" />
    <!-- Line -->
    <path
       d="M115,102.5 L115,57.5 "
       style="stroke:#000000;stroke-width:0.25;"
       id="path16" />
    <!-- Line -->
    <path
       d="M115,25.5 L160,25.5 "
       style="stroke:#000000;stroke-width:0.25;"
       id="path18" />
    <!-- Line -->
    <path
       d="M160,25.5 L160,50.5 "
       style="stroke:#000000;stroke-width:0.25;"
       id="path20" />
    <!-- Line -->
    <path
       d="M160,50.5 L115,50.5 "
       style="stroke:#000000;stroke-width:0.25;"
       id="path22" />
    <!-- Line -->
    <path
       d="M115,50.5 L115,25.5 "
       style="stroke:#000000;stroke-width:0.25;"
       id="path24" />
    <!-- Line -->
    <path
       d="M230,5 L255,5 "
       style="stroke:#000000;stroke-width:0.25;"
       id="path26" />
    <!-- Line -->
    <path
       d="M260,5 L285,5 "
       style="stroke:#000000;stroke-width:0.25;"
       id="path28" />
    <!-- Line -->
    <path
       d="M285,5 L285,40 "
       style="stroke:#000000;stroke-width:0.25;"
       id="path30" />
    <!-- Line -->
    <path
       d="M285,40 L230,40 "
       style="stroke:#000000;stroke-width:0.25;"
       id="path32" />
    <!-- Line -->
    <path
       d="M230,40 L230,5 "
       style="stroke:#000000;stroke-width:0.25;"
       id="path34" />
    <!-- Arc -->
    <path
       d="M234,35 A1.5,1.5 0 0,1 231,35 "
       style="stroke:#000000;stroke-width:0.25;"
       id="path36" />
    <!-- Arc -->
    <path
       d="M284,35 A1.5,1.5 0 0,1 281,35 "
       style="stroke:#000000;stroke-width:0.25;"
       id="path38" />
    <!-- Arc -->
    <path
       d="M231,10 A1.5,1.5 0 0,1 234,10 "
       style="stroke:#000000;stroke-width:0.25;"
       id="path40" />
    <!-- Arc -->
    <path
       d="M281,10 A1.5,1.5 0 0,1 284,10 "
       style="stroke:#000000;stroke-width:0.25;"
       id="path42" />
    <!-- Line -->
    <path
       d="M234,10 L234,35 "
       style="stroke:#000000;stroke-width:0.25;"
       id="path44" />
    <!-- Line -->
    <path
       d="M284,10 L284,35 "
       style="stroke:#000000;stroke-width:0.25;"
       id="path46" />
    <!-- Line -->
    <path
       d="M231,35 L231,10 "
       style="stroke:#000000;stroke-width:0.25;"
       id="path48" />
    <!-- Line -->
    <path
       d="M281,35 L281,10 "
       style="stroke:#000000;stroke-width:0.25;"
       id="path50" />
    <!-- Circle -->
    <circle
       cx="112.5"
       cy="51"
       r="1.5"
       style="stroke:#000000;stroke-width:0.25;"
       id="circle52" />
    <!-- Circle -->
    <circle
       cx="162.5"
       cy="51"
       r="1.5"
       style="stroke:#000000;stroke-width:0.25;"
       id="circle54" />
    <!-- Arc -->
    <path
       d="M260,9.5 A2.5,2.5 0 0,1 255,9.5 "
       style="stroke:#000000;stroke-width:0.25;"
       id="path56" />
    <!-- Line -->
    <path
       d="M260,5 L260,9.5 "
       style="stroke:#000000;stroke-width:0.25;"
       id="path58" />
    <!-- Line -->
    <path
       d="M255,5 L255,9.5 "
       style="stroke:#000000;stroke-width:0.25;"
       id="path60" />
    <!-- Line -->
    <path
       d="M89.2163,32.3168 L97.4663,32.3168 "
       style="stroke:#000000;stroke-width:0.25;"
       id="path62" />
    <!-- Line -->
    <path
       d="M97.4663,32.3168 L97.4663,42.3168 "
       style="stroke:#000000;stroke-width:0.25;"
       id="path64" />
    <!-- Line -->
    <path
       d="M97.4663,42.3168 L89.2163,42.3168 "
       style="stroke:#000000;stroke-width:0.25;"
       id="path66" />
    <!-- Line -->
    <path
       d="M89.2163,42.3168 L89.2163,32.3168 "
       style="stroke:#000000;stroke-width:0.25;"
       id="path68" />
    <!-- Line -->
    <path
       d="M80.5761,32.1031 L86.2261,32.1031 "
       style="stroke:#000000;stroke-width:0.25;"
       id="path70" />
    <!-- Line -->
    <path
       d="M86.2261,32.1031 L86.2261,42.7531 "
       style="stroke:#000000;stroke-width:0.25;"
       id="path72" />
    <!-- Line -->
    <path
       d="M86.2261,42.7531 L80.5761,42.7531 "
       style="stroke:#000000;stroke-width:0.25;"
       id="path74" />
    <!-- Line -->
    <path
       d="M80.5761,42.7531 L80.5761,32.1031 "
       style="stroke:#000000;stroke-width:0.25;"
       id="path76" />
    <!-- Text: Auto -->
    <g
       id="g80">
      <path
         d="M100.6506,34 L100.4221,34.5847 L99.5109,34.5847 L99.2811,34 L99,34 L99.8159,36 L100.124,36 L100.9276,34 Z M100.0844,35.4563 C100.0693,35.4943 100.0549,35.5327 100.0412,35.5714 C100.0274,35.6101 100.0153,35.6453 100.005,35.6771 C99.9946,35.7088 99.9858,35.7354 99.9787,35.7567 C99.9715,35.7779 99.9674,35.791 99.9665,35.7958 C99.9647,35.791 99.9605,35.7777 99.9539,35.756 C99.9473,35.7342 99.9385,35.7073 99.9276,35.675 C99.9167,35.6428 99.9043,35.6073 99.8905,35.5685 C99.8768,35.5297 99.8628,35.4913 99.8487,35.4536 L99.5932,34.7964 L100.3412,34.7964 Z M101.3788,35.5359 L101.3788,34.5622 C101.3788,34.4875 101.3842,34.425 101.3952,34.3748 C101.4061,34.3246 101.4238,34.2842 101.4484,34.2534 C101.473,34.2227 101.5054,34.2009 101.5456,34.1882 C101.5858,34.1754 101.6357,34.1691 101.6954,34.1691 C101.7559,34.1691 101.8106,34.1797 101.8593,34.201 C101.908,34.2223 101.9496,34.253 101.9841,34.2932 C102.0186,34.3334 102.0454,34.383 102.0644,34.4421 C102.0834,34.5012 102.0929,34.5691 102.0929,34.6458 L102.0929,35.5359 L102.3484,35.5359 L102.3484,34.3279 C102.3484,34.2958 102.3486,34.262 102.349,34.2264 C102.3495,34.1909 102.3502,34.1573 102.3511,34.1257 C102.352,34.094 102.353,34.0668 102.354,34.0441 C102.355,34.0213 102.356,34.0066 102.3569,34 L102.1154,34 C102.1145,34.0048 102.1136,34.0176 102.1127,34.0384 C102.1118,34.0593 102.1106,34.0832 102.1091,34.1101 C102.1076,34.1371 102.1064,34.1646 102.1055,34.1925 C102.1046,34.2203 102.1042,34.2437 102.1042,34.2626 L102.0997,34.2626 C102.0751,34.2182 102.0482,34.1781 102.019,34.1421 C101.9897,34.1061 101.9557,34.0755 101.9168,34.0504 C101.878,34.0252 101.8335,34.0058 101.7833,33.9921 C101.7331,33.9785 101.6749,33.9717 101.6086,33.9717 C101.5235,33.9717 101.4501,33.9821 101.3887,34.0029 C101.3272,34.0237 101.2766,34.0559 101.2369,34.0994 C101.1971,34.1429 101.168,34.1987 101.1496,34.2669 C101.1311,34.3351 101.1219,34.4169 101.1219,34.5123 L101.1219,35.5359 Z M103.3361,34.0113 C103.2971,34.001 103.2576,33.9928 103.2174,33.9865 C103.1772,33.9802 103.1306,33.9771 103.0775,33.9771 C102.8731,33.9771 102.7708,34.0931 102.7708,34.3251 L102.7708,35.3501 L102.5936,35.3501 L102.5936,35.5359 L102.7807,35.5359 L102.8562,35.8794 L103.0266,35.8794 L103.0266,35.5359 L103.3105,35.5359 L103.3105,35.3501 L103.0266,35.3501 L103.0266,34.3805 C103.0266,34.3067 103.0386,34.2549 103.0627,34.2251 C103.0867,34.1952 103.1285,34.1803 103.1882,34.1803 C103.2128,34.1803 103.2367,34.1822 103.2599,34.186 C103.2831,34.1897 103.3085,34.1944 103.3361,34.2001 Z M104.8518,34.7695 C104.8518,34.5006 104.7926,34.3004 104.6742,34.1689 C104.5558,34.0374 104.384,33.9717 104.1588,33.9717 C104.052,33.9717 103.9565,33.9878 103.8723,34.02 C103.788,34.0522 103.7168,34.1014 103.6586,34.1675 C103.6005,34.2337 103.556,34.3167 103.5251,34.4165 C103.4943,34.5163 103.4788,34.634 103.4788,34.7695 C103.4788,35.2993 103.7083,35.5642 104.1673,35.5642 C104.2867,35.5642 104.3896,35.5476 104.4763,35.5145 C104.5629,35.4814 104.6339,35.4317 104.6892,35.3654 C104.7445,35.2992 104.7855,35.2164 104.812,35.1171 C104.8385,35.0179 104.8518,34.902 104.8518,34.7695 M104.5833,34.7695 C104.5833,34.8885 104.5741,34.9869 104.5557,35.0645 C104.5372,35.1422 104.5102,35.2042 104.4747,35.2505 C104.4392,35.2968 104.3959,35.3292 104.3448,35.3477 C104.2937,35.3661 104.236,35.3753 104.1718,35.3753 C104.1064,35.3753 104.0475,35.3657 103.995,35.3463 C103.9426,35.327 103.8978,35.2939 103.8608,35.2471 C103.8238,35.2003 103.7957,35.1381 103.7763,35.0605 C103.7569,34.9828 103.7473,34.8858 103.7473,34.7695 C103.7473,34.6502 103.7577,34.5515 103.7785,34.4734 C103.7994,34.3953 103.828,34.333 103.8644,34.2867 C103.9008,34.2404 103.9439,34.2078 103.9935,34.1889 C104.0431,34.17 104.0973,34.1605 104.1561,34.1605 C104.2214,34.1605 104.2806,34.1697 104.3335,34.1882 C104.3864,34.2066 104.4314,34.239 104.4682,34.2853 C104.5051,34.3317 104.5335,34.3941 104.5534,34.4727 C104.5734,34.5512 104.5833,34.6502 104.5833,34.7695"
         style="fill:#000000;fill-rule:evenodd;0"
         id="path78" />
    </g>
    <!-- Text: Manual -->
    <g
       id="g84">
      <path
         d="M100.7005,38.8934 L100.7005,40.2278 C100.7005,40.2761 100.701,40.3253 100.702,40.3753 C100.703,40.4254 100.7045,40.4713 100.7063,40.513 C100.7081,40.5612 100.7105,40.6082 100.7135,40.6537 C100.7003,40.6054 100.6865,40.5576 100.6721,40.5102 C100.6598,40.4695 100.6463,40.4262 100.6317,40.3803 C100.617,40.3344 100.6026,40.293 100.5885,40.2561 L100.0717,38.8934 L99.8815,38.8934 L99.3579,40.2561 C99.3522,40.2703 99.3463,40.2868 99.3402,40.3058 C99.334,40.3249 99.3274,40.345 99.3202,40.3663 C99.313,40.3876 99.3059,40.4093 99.2988,40.4315 C99.2918,40.4537 99.2849,40.4758 99.2783,40.4976 C99.2622,40.5477 99.2466,40.5997 99.2316,40.6537 C99.2325,40.6006 99.2338,40.548 99.2357,40.4959 C99.2377,40.4515 99.2392,40.4049 99.2401,40.3562 C99.241,40.3075 99.2415,40.2647 99.2415,40.2278 L99.2415,38.8934 L99,38.8934 L99,40.8934 L99.3562,40.8934 L99.8887,39.5068 C99.8953,39.4877 99.9033,39.4633 99.9127,39.4336 C99.9222,39.4039 99.9312,39.3733 99.9397,39.342 C99.9483,39.3107 99.9561,39.2811 99.9631,39.2532 C99.9702,39.2254 99.9752,39.2039 99.9781,39.1889 C99.9809,39.2039 99.9861,39.2256 99.9937,39.2539 C100.0013,39.2823 100.0101,39.3121 100.02,39.3434 C100.0299,39.3747 100.0396,39.405 100.049,39.4343 C100.0585,39.4635 100.0671,39.4877 100.0748,39.5068 L100.597,40.8934 L100.9447,40.8934 L100.9447,38.8934 Z M101.7708,38.8651 C101.6165,38.8651 101.5005,38.9058 101.423,38.9872 C101.3455,39.0686 101.3067,39.1802 101.3067,39.3221 C101.3067,39.4234 101.3258,39.5064 101.3641,39.5712 C101.4023,39.636 101.4525,39.6869 101.5145,39.7239 C101.5766,39.7609 101.6473,39.7864 101.7268,39.8005 C101.8062,39.8147 101.8872,39.8227 101.9696,39.8248 L102.3145,39.8303 L102.3145,39.9139 C102.3145,39.9775 102.3079,40.0315 102.2946,40.076 C102.2813,40.1205 102.2609,40.1565 102.2334,40.1839 C102.206,40.2114 102.1717,40.2314 102.1306,40.2442 C102.0895,40.2569 102.041,40.2633 101.985,40.2633 C101.9358,40.2633 101.8913,40.2597 101.8516,40.2526 C101.8119,40.2454 101.7773,40.2326 101.748,40.2141 C101.7186,40.1957 101.6949,40.1707 101.6769,40.139 C101.6589,40.1074 101.6471,40.0674 101.6414,40.0191 L101.3747,40.0434 C101.3842,40.1039 101.4022,40.1595 101.4286,40.21 C101.455,40.2606 101.4927,40.3043 101.5415,40.3412 C101.5903,40.3781 101.6514,40.4067 101.7247,40.4271 C101.798,40.4475 101.8867,40.4577 101.9908,40.4577 C102.1839,40.4577 102.3291,40.4134 102.4266,40.325 C102.524,40.2365 102.5727,40.1085 102.5727,39.9409 L102.5727,39.2797 C102.5727,39.2039 102.5827,39.1468 102.6026,39.1084 C102.6226,39.0701 102.6604,39.0509 102.7162,39.0509 C102.7303,39.0509 102.7445,39.0519 102.7587,39.0538 C102.7729,39.0557 102.7867,39.0581 102.7999,39.0608 L102.7999,38.902 C102.7678,38.8945 102.7358,38.8888 102.7041,38.8849 C102.6723,38.881 102.6384,38.8791 102.6025,38.8791 C102.5542,38.8791 102.5128,38.8855 102.4783,38.8984 C102.4438,38.9113 102.4157,38.9307 102.394,38.9566 C102.3722,38.9826 102.3556,39.0147 102.3443,39.0531 C102.3329,39.0915 102.3257,39.1362 102.3227,39.1872 L102.3145,39.1872 C102.287,39.138 102.2569,39.0935 102.2242,39.0538 C102.1915,39.0141 102.1535,38.9802 102.11,38.9524 C102.0665,38.9245 102.0171,38.9029 101.9617,38.8878 C101.9064,38.8727 101.8428,38.8651 101.7708,38.8651 M101.8289,39.0567 C101.9104,39.0567 101.9817,39.0716 102.0427,39.1014 C102.1037,39.1313 102.1543,39.1693 102.1945,39.2157 C102.2347,39.262 102.2647,39.3126 102.2847,39.3675 C102.3046,39.4224 102.3145,39.475 102.3145,39.5253 L102.3145,39.6513 L102.0348,39.6458 C101.9722,39.6449 101.9128,39.6404 101.8566,39.6323 C101.8003,39.6243 101.7509,39.6084 101.7083,39.5847 C101.6658,39.561 101.6319,39.5279 101.6069,39.4853 C101.5819,39.4427 101.5693,39.387 101.5693,39.318 C101.5693,39.2346 101.5918,39.1703 101.6366,39.1248 C101.6815,39.0794 101.7456,39.0567 101.8289,39.0567 M103.9706,38.8934 L103.9706,39.8671 C103.9706,39.9421 103.9652,40.0046 103.9542,40.0546 C103.9433,40.1047 103.9255,40.1452 103.901,40.1759 C103.8764,40.2066 103.844,40.2284 103.8038,40.2411 C103.7636,40.2539 103.7137,40.2602 103.654,40.2602 C103.5935,40.2602 103.5388,40.2496 103.4901,40.2283 C103.4414,40.207 103.3998,40.1763 103.3653,40.1361 C103.3308,40.0959 103.304,40.0463 103.285,39.9872 C103.266,39.9281 103.2565,39.8602 103.2565,39.7835 L103.2565,38.8934 L103.001,38.8934 L103.001,40.1014 C103.001,40.1335 103.0008,40.1673 103.0003,40.2029 C102.9999,40.2384 102.9992,40.272 102.9983,40.3036 C102.9974,40.3353 102.9964,40.3625 102.9954,40.3852 C102.9944,40.408 102.9934,40.4227 102.9925,40.4293 L103.2339,40.4293 C103.2349,40.4245 103.2358,40.4117 103.2367,40.3909 C103.2376,40.37 103.2388,40.3462 103.2403,40.3193 C103.2417,40.2925 103.2429,40.265 103.2439,40.237 C103.2448,40.209 103.2452,40.1856 103.2452,40.1667 L103.2497,40.1667 C103.2742,40.2113 103.3012,40.2515 103.3304,40.2874 C103.3597,40.3233 103.3937,40.3538 103.4325,40.3789 C103.4714,40.4041 103.5159,40.4235 103.5661,40.4372 C103.6163,40.4508 103.6745,40.4577 103.7408,40.4577 C103.8259,40.4577 103.8992,40.4472 103.9607,40.4264 C104.0222,40.4056 104.0728,40.3734 104.1125,40.3299 C104.1523,40.2864 104.1814,40.2304 104.1998,40.1617 C104.2182,40.0931 104.2275,40.0115 104.2275,39.917 L104.2275,38.8934 Z M104.8617,40.4293 L104.8617,39.4556 C104.8617,39.3809 104.8671,39.3185 104.8781,39.2683 C104.889,39.2181 104.9068,39.1776 104.9314,39.1469 C104.9559,39.1161 104.9883,39.0944 105.0285,39.0816 C105.0687,39.0689 105.1186,39.0625 105.1783,39.0625 C105.2388,39.0625 105.2935,39.0731 105.3422,39.0944 C105.3909,39.1157 105.4325,39.1465 105.467,39.1866 C105.5015,39.2268 105.5283,39.2765 105.5473,39.3356 C105.5663,39.3946 105.5758,39.4625 105.5758,39.5393 L105.5758,40.4293 L105.8313,40.4293 L105.8313,39.2213 C105.8313,39.1892 105.8315,39.1554 105.832,39.1199 C105.8324,39.0844 105.8331,39.0508 105.834,39.0191 C105.8349,38.9875 105.8359,38.9603 105.8369,38.9375 C105.8379,38.9147 105.8389,38.9 105.8398,38.8934 L105.5984,38.8934 C105.5974,38.8982 105.5965,38.911 105.5956,38.9319 C105.5947,38.9527 105.5935,38.9766 105.592,39.0036 C105.5906,39.0306 105.5894,39.058 105.5885,39.0859 C105.5875,39.1138 105.5871,39.1372 105.5871,39.1561 L105.5827,39.1561 C105.5581,39.1117 105.5311,39.0715 105.5019,39.0355 C105.4726,38.9995 105.4386,38.969 105.3998,38.9438 C105.3609,38.9187 105.3164,38.8992 105.2662,38.8856 C105.216,38.8719 105.1578,38.8651 105.0915,38.8651 C105.0064,38.8651 104.9331,38.8755 104.8716,38.8963 C104.8101,38.9172 104.7595,38.9493 104.7198,38.9928 C104.68,39.0363 104.651,39.0922 104.6325,39.1603 C104.6141,39.2285 104.6048,39.3103 104.6048,39.4057 L104.6048,40.4293 Z M106.6202,38.8651 C106.4658,38.8651 106.3499,38.9058 106.2724,38.9872 C106.1948,39.0686 106.1561,39.1802 106.1561,39.3221 C106.1561,39.4234 106.1752,39.5064 106.2135,39.5712 C106.2517,39.636 106.3019,39.6869 106.3639,39.7239 C106.4259,39.7609 106.4967,39.7864 106.5762,39.8005 C106.6556,39.8147 106.7366,39.8227 106.819,39.8248 L107.1639,39.8303 L107.1639,39.9139 C107.1639,39.9775 107.1573,40.0315 107.144,40.076 C107.1306,40.1205 107.1103,40.1565 107.0828,40.1839 C107.0554,40.2114 107.0211,40.2314 106.98,40.2442 C106.9389,40.2569 106.8904,40.2633 106.8344,40.2633 C106.7852,40.2633 106.7407,40.2597 106.701,40.2526 C106.6613,40.2454 106.6267,40.2326 106.5973,40.2141 C106.568,40.1957 106.5443,40.1707 106.5263,40.139 C106.5083,40.1074 106.4965,40.0674 106.4908,40.0191 L106.224,40.0434 C106.2336,40.1039 106.2516,40.1595 106.278,40.21 C106.3044,40.2606 106.342,40.3043 106.3909,40.3412 C106.4397,40.3781 106.5008,40.4067 106.5741,40.4271 C106.6474,40.4475 106.7361,40.4577 106.8402,40.4577 C107.0332,40.4577 107.1785,40.4134 107.276,40.325 C107.3734,40.2365 107.4221,40.1085 107.4221,39.9409 L107.4221,39.2797 C107.4221,39.2039 107.4321,39.1468 107.452,39.1084 C107.4719,39.0701 107.5098,39.0509 107.5656,39.0509 C107.5797,39.0509 107.5939,39.0519 107.6081,39.0538 C107.6223,39.0557 107.636,39.0581 107.6492,39.0608 L107.6492,38.902 C107.6171,38.8945 107.5852,38.8888 107.5534,38.8849 C107.5217,38.881 107.4878,38.8791 107.4518,38.8791 C107.4036,38.8791 107.3622,38.8855 107.3277,38.8984 C107.2932,38.9113 107.2651,38.9307 107.2433,38.9566 C107.2216,38.9826 107.205,39.0147 107.1936,39.0531 C107.1823,39.0915 107.1751,39.1362 107.1721,39.1872 L107.1639,39.1872 C107.1364,39.138 107.1063,39.0935 107.0736,39.0538 C107.0409,39.0141 107.0028,38.9802 106.9594,38.9524 C106.9159,38.9245 106.8665,38.9029 106.8111,38.8878 C106.7558,38.8727 106.6922,38.8651 106.6202,38.8651 M106.6783,39.0567 C106.7598,39.0567 106.8311,39.0716 106.8921,39.1014 C106.9531,39.1313 107.0037,39.1693 107.0439,39.2157 C107.0841,39.262 107.1141,39.3126 107.1341,39.3675 C107.154,39.4224 107.1639,39.475 107.1639,39.5253 L107.1639,39.6513 L106.8842,39.6458 C106.8216,39.6449 106.7622,39.6404 106.7059,39.6323 C106.6497,39.6243 106.6003,39.6084 106.5577,39.5847 C106.5151,39.561 106.4813,39.5279 106.4563,39.4853 C106.4312,39.4427 106.4187,39.387 106.4187,39.318 C106.4187,39.2346 106.4411,39.1703 106.486,39.1248 C106.5309,39.0794 106.5949,39.0567 106.6783,39.0567 M107.8449,38.8934 L107.8449,41 L108.1004,41 L108.1004,38.8934 Z"
         style="fill:#000000;fill-rule:evenodd;0"
         id="path82" />
    </g>
    <!-- Text: ↑ -->
    <g
       id="g88">
      <path
         d="M78.6984,41.5101 C78.6182,41.4412 78.5201,41.3719 78.4043,41.3022 C78.2885,41.2324 78.1537,41.1609 78,41.0874 L78,41.3436 C78.1605,41.4808 78.3071,41.6262 78.4397,41.7799 C78.5723,41.9336 78.6882,42.1075 78.7872,42.3016 L78.9153,42.3016 C79.0143,42.1075 79.1302,41.9336 79.2628,41.7799 C79.3954,41.6262 79.5423,41.4808 79.7034,41.3436 L79.7034,41.0874 C79.5491,41.1609 79.4141,41.2324 79.2982,41.3022 C79.1824,41.3719 79.0844,41.4412 79.0041,41.5101 L79.0041,38 L78.6984,38 Z"
         style="fill:#000000;fill-rule:evenodd;0"
         id="path86" />
    </g>
    <!-- Text: ↓ -->
    <g
       id="g92">
      <path
         d="M79.0041,32.7915 C79.0844,32.8604 79.1824,32.9297 79.2982,32.9994 C79.4141,33.0691 79.5491,33.1407 79.7034,33.2141 L79.7034,32.9588 C79.5423,32.8217 79.3954,32.6761 79.2628,32.5221 C79.1302,32.3681 79.0143,32.1941 78.9153,32 L78.7872,32 C78.6882,32.1941 78.5723,32.3681 78.4397,32.5221 C78.3071,32.6761 78.1605,32.8217 78,32.9588 L78,33.2141 C78.1537,33.1407 78.2885,33.0691 78.4043,32.9994 C78.5201,32.9297 78.6182,32.8604 78.6984,32.7915 L78.6984,36.3016 L79.0041,36.3016 Z"
         style="fill:#000000;fill-rule:evenodd;0"
         id="path90" />
    </g>
    <!-- Line -->
    <path
       d="M190,105 L205,105 "
       style="stroke:#000000;stroke-width:0.25;"
       id="path94" />
    <!-- Line -->
    <path
       d="M189.812,85.2558 L204.812,85.2558 "
       style="stroke:#000000;stroke-width:0.25;"
       id="path96" />
    <!-- Line -->
    <path
       d="M189.6239,65.5117 L204.6239,65.5117 "
       style="stroke:#000000;stroke-width:0.25;"
       id="path98" />
    <!-- Line -->
    <path
       d="M189.4359,45.7675 L204.4359,45.7675 "
       style="stroke:#000000;stroke-width:0.25;"
       id="path100" />
    <!-- Line -->
    <path
       d="M189.2478,26.0234 L204.2478,26.0234 "
       style="stroke:#000000;stroke-width:0.25;"
       id="path102" />
    <!-- Line -->
    <path
       d="M189.0598,6.2792 L204.0598,6.2792 "
       style="stroke:#000000;stroke-width:0.25;"
       id="path104" />
    <!-- Line -->
    <path
       d="M210,105 L225,105 "
       style="stroke:#000000;stroke-width:0.25;"
       id="path106" />
    <!-- Line -->
    <path
       d="M209.812,85.2558 L224.812,85.2558 "
       style="stroke:#000000;stroke-width:0.25;"
       id="path108" />
    <!-- Line -->
    <path
       d="M209.6239,65.5117 L224.6239,65.5117 "
       style="stroke:#000000;stroke-width:0.25;"
       id="path110" />
    <!-- Line -->
    <path
       d="M209.4359,45.7675 L224.4359,45.7675 "
       style="stroke:#000000;stroke-width:0.25;"
       id="path112" />
    <!-- Line -->
    <path
       d="M209.2478,26.0234 L224.2478,26.0234 "
       style="stroke:#000000;stroke-width:0.25;"
       id="path114" />
    <!-- Line -->
    <path
       d="M209.0598,6.2792 L224.0598,6.2792 "
       style="stroke:#000000;stroke-width:0.25;"
       id="path116" />
    <!-- Line -->
    <path
       d="M205,105 L205,120 "
       style="stroke:#000000;stroke-width:0.25;"
       id="path118" />
    <!-- Line -->
    <path
       d="M204.812,85.2558 L204.812,100.2558 "
       style="stroke:#000000;stroke-width:0.25;"
       id="path120" />
    <!-- Line -->
    <path
       d="M204.6239,65.5117 L204.6239,80.5117 "
       style="stroke:#000000;stroke-width:0.25;"
       id="path122" />
    <!-- Line -->
    <path
       d="M204.4359,45.7675 L204.4359,60.7675 "
       style="stroke:#000000;stroke-width:0.25;"
       id="path124" />
    <!-- Line -->
    <path
       d="M204.2478,26.0234 L204.2478,41.0234 "
       style="stroke:#000000;stroke-width:0.25;"
       id="path126" />
    <!-- Line -->
    <path
       d="M204.0598,6.2792 L204.0598,21.2792 "
       style="stroke:#000000;stroke-width:0.25;"
       id="path128" />
    <!-- Line -->
    <path
       d="M225,105 L225,120 "
       style="stroke:#000000;stroke-width:0.25;"
       id="path130" />
    <!-- Line -->
    <path
       d="M224.812,85.2558 L224.812,100.2558 "
       style="stroke:#000000;stroke-width:0.25;"
       id="path132" />
    <!-- Line -->
    <path
       d="M224.6239,65.5117 L224.6239,80.5117 "
       style="stroke:#000000;stroke-width:0.25;"
       id="path134" />
    <!-- Line -->
    <path
       d="M224.4359,45.7675 L224.4359,60.7675 "
       style="stroke:#000000;stroke-width:0.25;"
       id="path136" />
    <!-- Line -->
    <path
       d="M224.2478,26.0234 L224.2478,41.0234 "
       style="stroke:#000000;stroke-width:0.25;"
       id="path138" />
    <!-- Line -->
    <path
       d="M224.0598,6.2792 L224.0598,21.2792 "
       style="stroke:#000000;stroke-width:0.25;"
       id="path140" />
    <!-- Line -->
    <path
       d="M205,120 L190,120 "
       style="stroke:#000000;stroke-width:0.25;"
       id="path142" />
    <!-- Line -->
    <path
       d="M204.812,100.2558 L189.812,100.2558 "
       style="stroke:#000000;stroke-width:0.25;"
       id="path144" />
    <!-- Line -->
    <path
       d="M204.6239,80.5117 L189.6239,80.5117 "
       style="stroke:#000000;stroke-width:0.25;"
       id="path146" />
    <!-- Line -->
    <path
       d="M204.4359,60.7675 L189.4359,60.7675 "
       style="stroke:#000000;stroke-width:0.25;"
       id="path148" />
    <!-- Line -->
    <path
       d="M204.2478,41.0234 L189.2478,41.0234 "
       style="stroke:#000000;stroke-width:0.25;"
       id="path150" />
    <!-- Line -->
    <path
       d="M204.0598,21.2792 L189.0598,21.2792 "
       style="stroke:#000000;stroke-width:0.25;"
       id="path152" />
    <!-- Line -->
    <path
       d="M225,120 L210,120 "
       style="stroke:#000000;stroke-width:0.25;"
       id="path154" />
    <!-- Line -->
    <path
       d="M224.812,100.2558 L209.812,100.2558 "
       style="stroke:#000000;stroke-width:0.25;"
       id="path156" />
    <!-- Line -->
    <path
       d="M224.6239,80.5117 L209.6239,80.5117 "
       style="stroke:#000000;stroke-width:0.25;"
       id="path158" />
    <!-- Line -->
    <path
       d="M224.4359,60.7675 L209.4359,60.7675 "
       style="stroke:#000000;stroke-width:0.25;"
       id="path160" />
    <!-- Line -->
    <path
       d="M224.2478,41.0234 L209.2478,41.0234 "
       style="stroke:#000000;stroke-width:0.25;"
       id="path162" />
    <!-- Line -->
    <path
       d="M224.0598,21.2792 L209.0598,21.2792 "
       style="stroke:#000000;stroke-width:0.25;"
       id="path164" />
    <!-- Line -->
    <path
       d="M190,120 L190,105 "
       style="stroke:#000000;stroke-width:0.25;"
       id="path166" />
    <!-- Line -->
    <path
       d="M189.812,100.2558 L189.812,85.2558 "
       style="stroke:#000000;stroke-width:0.25;"
       id="path168" />
    <!-- Line -->
    <path
       d="M189.6239,80.5117 L189.6239,65.5117 "
       style="stroke:#000000;stroke-width:0.25;"
       id="path170" />
    <!-- Line -->
    <path
       d="M189.4359,60.7675 L189.4359,45.7675 "
       style="stroke:#000000;stroke-width:0.25;"
       id="path172" />
    <!-- Line -->
    <path
       d="M189.2478,41.0234 L189.2478,26.0234 "
       style="stroke:#000000;stroke-width:0.25;"
       id="path174" />
    <!-- Line -->
    <path
       d="M189.0598,21.2792 L189.0598,6.2792 "
       style="stroke:#000000;stroke-width:0.25;"
       id="path176" />
    <!-- Line -->
    <path
       d="M210,120 L210,105 "
       style="stroke:#000000;stroke-width:0.25;"
       id="path178" />
    <!-- Line -->
    <path
       d="M209.812,100.2558 L209.812,85.2558 "
       style="stroke:#000000;stroke-width:0.25;"
       id="path180" />
    <!-- Line -->
    <path
       d="M209.6239,80.5117 L209.6239,65.5117 "
       style="stroke:#000000;stroke-width:0.25;"
       id="path182" />
    <!-- Line -->
    <path
       d="M209.4359,60.7675 L209.4359,45.7675 "
       style="stroke:#000000;stroke-width:0.25;"
       id="path184" />
    <!-- Line -->
    <path
       d="M209.2478,41.0234 L209.2478,26.0234 "
       style="stroke:#000000;stroke-width:0.25;"
       id="path186" />
    <!-- Line -->
    <path
       d="M209.0598,21.2792 L209.0598,6.2792 "
       style="stroke:#000000;stroke-width:0.25;"
       id="path188" />
    <!-- Circle -->
    <circle
       cx="197.5"
       cy="112.5"
       r="0.5"
       style="stroke:#000000;stroke-width:0.25;"
       id="circle190" />
    <!-- Circle -->
    <circle
       cx="197.3119604743083"
       cy="92.75584980237154"
       r="0.5"
       style="stroke:#000000;stroke-width:0.25;"
       id="circle192" />
    <!-- Circle -->
    <circle
       cx="197.12392094861661"
       cy="73.01169960474309"
       r="0.5"
       style="stroke:#000000;stroke-width:0.25;"
       id="circle194" />
    <!-- Circle -->
    <circle
       cx="196.93588142292492"
       cy="53.26754940711463"
       r="0.5"
       style="stroke:#000000;stroke-width:0.25;"
       id="circle196" />
    <!-- Circle -->
    <circle
       cx="196.74784189723323"
       cy="33.52339920948617"
       r="0.5"
       style="stroke:#000000;stroke-width:0.25;"
       id="circle198" />
    <!-- Circle -->
    <circle
       cx="196.55980237154154"
       cy="13.779249011857715"
       r="0.5"
       style="stroke:#000000;stroke-width:0.25;"
       id="circle200" />
    <!-- Circle -->
    <circle
       cx="217.5"
       cy="112.5"
       r="0.5"
       style="stroke:#000000;stroke-width:0.25;"
       id="circle202" />
    <!-- Circle -->
    <circle
       cx="217.3119604743083"
       cy="92.75584980237156"
       r="0.5"
       style="stroke:#000000;stroke-width:0.25;"
       id="circle204" />
    <!-- Circle -->
    <circle
       cx="217.12392094861661"
       cy="73.01169960474309"
       r="0.5"
       style="stroke:#000000;stroke-width:0.25;"
       id="circle206" />
    <!-- Circle -->
    <circle
       cx="216.93588142292492"
       cy="53.267549407114615"
       r="0.5"
       style="stroke:#000000;stroke-width:0.25;"
       id="circle208" />
    <!-- Circle -->
    <circle
       cx="216.74784189723323"
       cy="33.52339920948617"
       r="0.5"
       style="stroke:#000000;stroke-width:0.25;"
       id="circle210" />
    <!-- Circle -->
    <circle
       cx="216.55980237154154"
       cy="13.779249011857729"
       r="0.5"
       style="stroke:#000000;stroke-width:0.25;"
       id="circle212" />
    <!-- Text: QCAD.org
Trial Version
Random lines added -->
    <!-- Line -->
    <!-- Line -->
    <!-- Line -->
    <!-- Text: QCAD.org
Trial Version
Random lines added -->
    <!-- Line -->
    <!-- Line -->
    <!-- Line -->
    <!-- Text: QCAD.org
Trial Version
Random lines added -->
    <g
       id="g248" />
    <!-- Line -->
    <!-- Line -->
    <!-- Line -->
    <!-- Text: QCAD.org
Trial Version
Random lines added -->
    <g
       id="g262" />
    <!-- Line -->
    <!-- Line -->
    <!-- Line -->
  </g>
</svg>
